<mxfile host="65bd71144e">
    <diagram id="d2jQV-R7GWPb5ZkM3vh8" name="Page-1">
        <mxGraphModel dx="1240" dy="670" grid="0" gridSize="10" guides="1" tooltips="1" connect="1" arrows="1" fold="1" page="1" pageScale="1" pageWidth="827" pageHeight="1169" math="0" shadow="0">
            <root>
                <mxCell id="0"/>
                <mxCell id="1" parent="0"/>
                <mxCell id="2" value="task" style="whiteSpace=wrap;html=1;" vertex="1" parent="1">
                    <mxGeometry x="175" y="52" width="120" height="60" as="geometry"/>
                </mxCell>
                <mxCell id="3" value="member" style="whiteSpace=wrap;html=1;" vertex="1" parent="1">
                    <mxGeometry x="20" y="144" width="120" height="60" as="geometry"/>
                </mxCell>
                <mxCell id="4" value="Day 2 Day" style="shape=step;perimeter=stepPerimeter;whiteSpace=wrap;html=1;fixedSize=1;" vertex="1" parent="1">
                    <mxGeometry x="179" y="147" width="120" height="80" as="geometry"/>
                </mxCell>
            </root>
        </mxGraphModel>
    </diagram>
</mxfile>